<?xml version="1.0" encoding="UTF-8" standalone="no"?>
<!DOCTYPE svg PUBLIC "-//W3C//DTD SVG 1.1//EN" "http://www.w3.org/Graphics/SVG/1.1/DTD/svg11.dtd">
<svg xmlns="http://www.w3.org/2000/svg" version="1.1" width="50" height="50" viewBox="0.00 0.00 1024.00 1024.00">
<path fill="#DEDEDE" d="
  M 709.19 568.78
  L 708.56 569.10
  L 708.24 569.52
  L 708.23 570.06
  L 708.53 570.70
  L 810.67 726.57
  L 810.75 726.88
  L 810.44 726.99
  L 727.39 726.99
  L 725.96 726.61
  L 724.91 725.57
  L 720.75 718.65
  L 661.73 628.17
  L 651.85 612.71
  L 641.84 597.37
  L 624.72 571.51
  L 611.81 551.46
  L 610.62 549.29
  L 609.73 547.02
  L 608.95 543.27
  L 608.88 534.78
  L 609.16 504.43
  L 609.47 503.66
  L 610.20 503.28
  L 615.25 503.00
  L 670.50 503.01
  L 675.08 502.89
  L 679.60 502.50
  L 684.05 501.85
  L 688.44 500.93
  L 688.44 500.93
  L 692.50 499.83
  L 696.51 498.49
  L 700.46 496.92
  L 704.35 495.11
  L 709.73 492.14
  L 714.72 488.81
  L 719.31 485.10
  L 723.50 481.01
  L 723.50 481.01
  L 727.03 476.89
  L 730.22 472.45
  L 733.07 467.68
  L 735.57 462.60
  L 736.99 459.08
  L 738.18 455.40
  L 739.14 451.56
  L 739.87 447.56
  L 740.51 442.09
  L 740.76 436.60
  L 740.63 431.22
  L 740.11 425.88
  L 739.21 420.75
  L 737.93 415.73
  L 736.30 410.94
  L 734.28 406.29
  L 731.26 400.65
  L 727.85 395.41
  L 724.06 390.55
  L 719.89 386.09
  L 719.89 386.09
  L 719.89 386.09
  L 719.89 386.09
  L 715.09 381.82
  L 709.88 377.99
  L 706.31 375.75
  L 702.65 373.75
  L 698.90 371.97
  L 695.07 370.43
  L 695.07 370.43
  L 695.07 370.43
  L 695.07 370.43
  L 689.04 368.52
  L 682.81 367.15
  L 676.38 366.32
  L 669.75 366.03
  L 586.09 366.00
  L 585.29 366.34
  L 584.96 367.14
  L 584.96 382.53
  L 584.77 383.30
  L 584.18 382.76
  L 574.70 368.84
  L 569.39 362.03
  L 561.95 353.40
  L 554.69 345.59
  L 547.95 339.02
  L 538.26 330.57
  L 528.15 322.57
  L 517.61 315.03
  L 506.66 307.93
  L 497.12 302.22
  L 486.88 296.40
  L 486.65 296.05
  L 486.78 295.66
  L 486.78 295.66
  L 486.89 295.58
  L 488.77 294.97
  L 489.50 294.92
  L 666.76 294.98
  L 673.94 295.18
  L 684.06 295.79
  L 693.35 296.74
  L 702.44 298.27
  L 711.33 300.39
  L 720.01 303.08
  L 728.51 306.32
  L 736.71 310.03
  L 744.60 314.20
  L 752.19 318.83
  L 752.19 318.83
  L 759.53 323.97
  L 766.57 329.58
  L 770.45 333.00
  L 774.10 336.49
  L 777.52 340.04
  L 780.72 343.66
  L 784.26 348.00
  L 787.60 352.43
  L 790.75 356.94
  L 793.71 361.53
  L 796.47 366.20
  L 799.04 370.95
  L 801.41 375.78
  L 803.60 380.69
  L 803.60 380.69
  L 803.60 380.69
  L 803.60 380.69
  L 803.60 380.69
  L 805.90 386.54
  L 807.94 392.49
  L 809.71 398.56
  L 811.22 404.73
  L 812.47 411.02
  L 813.46 417.42
  L 814.17 423.93
  L 814.63 430.55
  L 814.77 438.05
  L 814.46 445.45
  L 813.70 452.77
  L 812.49 459.99
  L 812.49 459.99
  L 811.40 464.90
  L 808.39 475.66
  L 804.80 485.76
  L 800.64 495.19
  L 798.34 499.65
  L 795.90 503.95
  L 792.21 509.82
  L 788.27 515.47
  L 784.07 520.89
  L 779.63 526.08
  L 779.63 526.08
  L 773.20 532.78
  L 766.31 539.06
  L 758.95 544.93
  L 751.14 550.38
  L 744.76 554.32
  L 738.33 557.83
  L 731.86 560.93
  L 725.33 563.60
  L 717.25 566.35
  L 709.19 568.78
  Z"
/>
<path fill="#DEDEDE" d="
  M 216.47 724.22
  L 216.12 722.85
  L 216.00 720.50
  L 216.00 405.90
  L 216.22 405.23
  L 216.90 405.00
  L 288.29 405.00
  L 288.79 405.21
  L 289.00 405.72
  L 289.00 655.02
  L 289.28 655.70
  L 289.97 655.98
  L 364.25 656.04
  L 371.60 655.84
  L 378.91 655.25
  L 378.91 655.25
  L 386.12 654.26
  L 393.29 652.88
  L 400.41 651.10
  L 407.49 648.93
  L 412.12 647.26
  L 416.71 645.36
  L 421.27 643.25
  L 425.80 640.91
  L 431.53 637.64
  L 437.05 634.20
  L 442.34 630.57
  L 447.40 626.76
  L 452.25 622.77
  L 456.87 618.60
  L 461.27 614.24
  L 465.45 609.71
  L 468.30 606.28
  L 471.45 602.11
  L 478.64 591.60
  L 483.80 582.92
  L 486.08 578.50
  L 488.16 574.04
  L 491.33 566.18
  L 494.03 558.17
  L 494.03 558.17
  L 495.76 551.95
  L 497.22 545.64
  L 498.39 539.25
  L 499.28 532.77
  L 500.06 524.08
  L 500.39 515.48
  L 500.27 506.95
  L 499.70 498.50
  L 498.42 488.41
  L 496.50 478.57
  L 493.95 468.97
  L 490.75 459.61
  L 488.14 453.19
  L 485.20 446.89
  L 481.96 440.71
  L 478.40 434.65
  L 472.65 426.01
  L 466.34 417.77
  L 459.55 410.06
  L 452.26 402.84
  L 444.58 396.22
  L 436.62 390.28
  L 428.24 384.94
  L 419.65 380.33
  L 414.59 377.98
  L 409.47 375.83
  L 404.29 373.90
  L 399.04 372.18
  L 399.04 372.18
  L 399.04 372.18
  L 399.04 372.18
  L 388.88 369.50
  L 378.50 367.58
  L 367.87 366.42
  L 357.02 366.03
  L 217.57 366.01
  L 217.17 365.84
  L 217.00 365.44
  L 217.00 296.86
  L 217.25 296.25
  L 217.86 296.00
  L 357.00 295.99
  L 369.21 296.08
  L 377.00 296.35
  L 384.84 297.03
  L 392.60 298.03
  L 400.29 299.34
  L 407.91 300.96
  L 407.91 300.96
  L 415.74 302.99
  L 423.49 305.35
  L 435.03 309.51
  L 446.48 314.40
  L 457.83 319.99
  L 469.08 326.31
  L 477.19 331.44
  L 485.15 337.10
  L 492.97 343.27
  L 500.63 349.96
  L 507.65 356.51
  L 512.85 361.62
  L 518.16 367.28
  L 523.25 373.16
  L 528.13 379.26
  L 532.78 385.58
  L 537.52 392.53
  L 541.97 399.55
  L 546.11 406.64
  L 549.96 413.80
  L 553.52 421.03
  L 556.78 428.34
  L 559.74 435.71
  L 562.40 443.16
  L 565.50 453.05
  L 567.92 462.32
  L 569.53 469.77
  L 570.90 477.21
  L 572.01 484.63
  L 572.87 492.05
  L 573.47 499.46
  L 573.83 506.86
  L 573.93 514.26
  L 573.78 521.64
  L 573.78 521.64
  L 573.78 521.64
  L 573.78 521.64
  L 573.78 521.64
  L 573.36 529.19
  L 572.68 536.74
  L 571.73 544.28
  L 570.52 551.81
  L 569.05 559.33
  L 567.31 566.83
  L 565.30 574.33
  L 563.03 581.82
  L 559.72 591.29
  L 555.96 600.50
  L 550.35 612.32
  L 544.13 623.67
  L 537.29 634.56
  L 529.83 644.97
  L 529.83 644.97
  L 529.83 644.97
  L 525.29 650.72
  L 520.55 656.31
  L 515.61 661.74
  L 510.46 667.03
  L 505.12 672.16
  L 499.57 677.14
  L 493.83 681.96
  L 487.88 686.63
  L 478.38 693.42
  L 468.54 699.62
  L 468.54 699.62
  L 468.54 699.62
  L 460.18 704.29
  L 451.59 708.57
  L 442.75 712.45
  L 433.69 715.93
  L 422.78 719.47
  L 411.72 722.31
  L 411.72 722.31
  L 411.72 722.31
  L 405.60 723.58
  L 399.43 724.63
  L 393.21 725.49
  L 386.95 726.13
  L 377.23 726.68
  L 364.56 726.94
  L 217.46 726.98
  L 217.25 726.96
  L 216.76 726.74
  L 216.41 726.30
  L 216.26 725.74
  L 216.35 725.15
  L 216.48 724.85
  L 216.56 724.52
  L 216.47 724.22
  Z"
/>
<path fill="#DEDEDE" d="
  M 534.47 696.73
  L 543.90 688.54
  L 553.47 679.21
  L 558.72 673.58
  L 562.87 668.57
  L 571.27 657.12
  L 575.06 651.21
  L 578.49 645.20
  L 581.54 639.09
  L 584.22 632.88
  L 584.73 631.85
  L 585.15 631.54
  L 585.15 631.54
  L 585.48 631.94
  L 585.73 633.05
  L 585.40 634.54
  L 585.18 635.48
  L 585.15 636.01
  L 584.98 676.48
  L 585.03 726.11
  L 584.77 726.75
  L 584.14 727.01
  L 490.00 727.17
  L 488.28 727.16
  L 487.28 726.86
  L 486.92 726.47
  L 486.92 726.47
  L 486.92 726.47
  L 487.18 726.01
  L 488.07 725.47
  L 496.01 721.53
  L 503.69 717.43
  L 511.88 712.68
  L 519.74 707.64
  L 527.27 702.33
  L 534.47 696.73
  Z"
/>
</svg>
